<svg width="587.471" height="587.471" xmlns="http://www.w3.org/2000/svg" version="1.1" xml:space="preserve">
 <g>
  <title>Layer 1</title>
  <g id="svg_1">
   <g id="svg_2">
    <path fill="#ffffff" d="m220.302,440.604c121.476,0 220.302,-98.826 220.302,-220.302c0,-121.476 -98.827,-220.302 -220.302,-220.302c-121.476,0 -220.302,98.826 -220.302,220.302c0,121.475 98.826,220.302 220.302,220.302zm0,-369.462c82.247,0 149.159,66.913 149.159,149.159c0,82.248 -66.912,149.16 -149.159,149.16s-149.16,-66.912 -149.16,-149.16c0,-82.246 66.913,-149.159 149.16,-149.159z" id="svg_3"/>
    <path fill="#ffffff" d="m525.523,587.471c16.555,0 32.113,-6.447 43.801,-18.158c11.699,-11.68 18.146,-27.234 18.146,-43.791c0,-16.553 -6.447,-32.115 -18.152,-43.822l-122.675,-122.677c-3.262,-3.262 -7.475,-5.061 -11.859,-5.061c-5.449,0 -10.465,2.711 -13.762,7.438c-16.238,23.318 -36.297,43.377 -59.613,59.615c-4.258,2.965 -6.947,7.467 -7.379,12.352c-0.428,4.828 1.393,9.666 4.998,13.27l122.674,122.676c11.704,11.71 27.267,18.158 43.821,18.158z" id="svg_4"/>
   </g>
  </g>
  <g id="svg_5"/>
  <g id="svg_6"/>
  <g id="svg_7"/>
  <g id="svg_8"/>
  <g id="svg_9"/>
  <g id="svg_10"/>
  <g id="svg_11"/>
  <g id="svg_12"/>
  <g id="svg_13"/>
  <g id="svg_14"/>
  <g id="svg_15"/>
  <g id="svg_16"/>
  <g id="svg_17"/>
  <g id="svg_18"/>
  <g id="svg_19"/>
 </g>

</svg>