<svg width="384" height="384" xmlns="http://www.w3.org/2000/svg">

 <g>
  <title>Layer 1</title>
  <path fill="#ffffff" id="svg_1" d="m362.66797,0l-341.33594,0c-11.7539,0 -21.33203,9.57813 -21.33203,21.33203l0,42.66797c0,11.75391 9.57813,21.33203 21.33203,21.33203l341.33594,0c11.75391,0 21.33203,-9.57812 21.33203,-21.33203l0,-42.66797c0,-11.7539 -9.57812,-21.33203 -21.33203,-21.33203zm0,0"/>
  <path fill="#ffffff" id="svg_2" d="m362.66797,128l-341.33594,0c-11.7539,0 -21.33203,9.57813 -21.33203,21.33203l0,42.66797c0,11.75391 9.57813,21.33203 21.33203,21.33203l341.33594,0c11.75391,0 21.33203,-9.57812 21.33203,-21.33203l0,-42.66797c0,-11.7539 -9.57812,-21.33203 -21.33203,-21.33203zm0,0"/>
  <path fill="#ffffff" id="svg_3" d="m362.66797,256l-341.33594,0c-11.7539,0 -21.33203,9.57813 -21.33203,21.33203l0,42.66797c0,11.75391 9.57813,21.33203 21.33203,21.33203l341.33594,0c11.75391,0 21.33203,-9.57812 21.33203,-21.33203l0,-42.66797c0,-11.7539 -9.57812,-21.33203 -21.33203,-21.33203zm0,0"/>
 </g>
</svg>